<mxfile host="app.diagrams.net" modified="2024-06-04T17:15:15.587Z" agent="Mozilla/5.0 (X11; Linux x86_64) AppleWebKit/537.36 (KHTML, like Gecko) Chrome/124.0.0.0 Safari/537.36" etag="owNW9Zfw6Bt1TK387PBN" version="24.4.13" type="device">
  <diagram name="Page-1" id="edf60f1a-56cd-e834-aa8a-f176f3a09ee4">
    <mxGraphModel dx="989" dy="514" grid="1" gridSize="10" guides="1" tooltips="1" connect="1" arrows="1" fold="1" page="1" pageScale="1" pageWidth="1100" pageHeight="850" background="none" math="0" shadow="0">
      <root>
        <mxCell id="0" />
        <mxCell id="1" parent="0" />
        <mxCell id="AfMUEeuCTZLKJgqZ1h3n-15" style="edgeStyle=orthogonalEdgeStyle;rounded=0;orthogonalLoop=1;jettySize=auto;html=1;exitX=0.5;exitY=1;exitDx=0;exitDy=0;entryX=0.5;entryY=0;entryDx=0;entryDy=0;" edge="1" parent="1" source="60e70716793133e9-4" target="AfMUEeuCTZLKJgqZ1h3n-12">
          <mxGeometry relative="1" as="geometry" />
        </mxCell>
        <mxCell id="60e70716793133e9-4" value="&lt;font style=&quot;font-size: 13px;&quot;&gt;&lt;b&gt;UID&lt;/b&gt;&lt;/font&gt;" style="rounded=0;whiteSpace=wrap;html=1;shadow=1;labelBackgroundColor=none;strokeWidth=1;fontFamily=Verdana;fontSize=8;align=center;fillColor=#d5e8d4;strokeColor=#82b366;" parent="1" vertex="1">
          <mxGeometry x="470" y="220" width="120" height="60" as="geometry" />
        </mxCell>
        <mxCell id="AfMUEeuCTZLKJgqZ1h3n-20" style="edgeStyle=orthogonalEdgeStyle;rounded=0;orthogonalLoop=1;jettySize=auto;html=1;exitX=0.5;exitY=1;exitDx=0;exitDy=0;entryX=1;entryY=0.5;entryDx=0;entryDy=0;" edge="1" parent="1" source="60e70716793133e9-5" target="AfMUEeuCTZLKJgqZ1h3n-19">
          <mxGeometry relative="1" as="geometry" />
        </mxCell>
        <mxCell id="60e70716793133e9-5" value="&lt;b&gt;&lt;font style=&quot;font-size: 10px;&quot;&gt;IPTABLES&lt;/font&gt;&lt;/b&gt;" style="rhombus;whiteSpace=wrap;html=1;rounded=0;shadow=1;labelBackgroundColor=none;strokeWidth=1;fontFamily=Verdana;fontSize=8;align=center;fillColor=#d5e8d4;strokeColor=#82b366;" parent="1" vertex="1">
          <mxGeometry x="470" y="420" width="100" height="60" as="geometry" />
        </mxCell>
        <mxCell id="60e70716793133e9-38" style="edgeStyle=orthogonalEdgeStyle;rounded=0;html=1;labelBackgroundColor=none;startSize=5;endArrow=classicThin;endFill=1;endSize=5;jettySize=auto;orthogonalLoop=1;strokeWidth=1;fontFamily=Verdana;fontSize=8;entryX=0.5;entryY=0;entryDx=0;entryDy=0;entryPerimeter=0;" parent="1" edge="1">
          <mxGeometry relative="1" as="geometry">
            <mxPoint x="500.02857142857147" y="640" as="sourcePoint" />
            <mxPoint x="440.0000000000002" y="710" as="targetPoint" />
            <Array as="points">
              <mxPoint x="500" y="670" />
              <mxPoint x="440" y="670" />
            </Array>
          </mxGeometry>
        </mxCell>
        <mxCell id="60e70716793133e9-9" value="&lt;font style=&quot;font-size: 12px;&quot;&gt;&lt;b&gt;NFLOG&lt;/b&gt;&lt;/font&gt;" style="whiteSpace=wrap;html=1;rounded=0;shadow=1;labelBackgroundColor=none;strokeWidth=1;fontFamily=Verdana;fontSize=8;align=center;fillColor=#d5e8d4;strokeColor=#82b366;" parent="1" vertex="1">
          <mxGeometry x="450" y="600" width="120" height="40" as="geometry" />
        </mxCell>
        <mxCell id="AfMUEeuCTZLKJgqZ1h3n-16" style="edgeStyle=orthogonalEdgeStyle;rounded=0;orthogonalLoop=1;jettySize=auto;html=1;exitX=0.5;exitY=1;exitDx=0;exitDy=0;entryX=0.5;entryY=0;entryDx=0;entryDy=0;" edge="1" parent="1" source="AfMUEeuCTZLKJgqZ1h3n-1" target="AfMUEeuCTZLKJgqZ1h3n-8">
          <mxGeometry relative="1" as="geometry" />
        </mxCell>
        <mxCell id="AfMUEeuCTZLKJgqZ1h3n-1" value="&lt;font style=&quot;font-size: 15px;&quot;&gt;&lt;b&gt;DECISIONES DE COM-FILTER&lt;/b&gt;&lt;/font&gt;" style="rounded=1;whiteSpace=wrap;html=1;fillColor=#dae8fc;strokeColor=#6c8ebf;" vertex="1" parent="1">
          <mxGeometry x="280" y="40" width="320" height="60" as="geometry" />
        </mxCell>
        <mxCell id="AfMUEeuCTZLKJgqZ1h3n-24" style="edgeStyle=orthogonalEdgeStyle;rounded=0;orthogonalLoop=1;jettySize=auto;html=1;exitX=0.5;exitY=1;exitDx=0;exitDy=0;" edge="1" parent="1" source="AfMUEeuCTZLKJgqZ1h3n-4">
          <mxGeometry relative="1" as="geometry">
            <mxPoint x="440" y="320" as="targetPoint" />
          </mxGeometry>
        </mxCell>
        <mxCell id="AfMUEeuCTZLKJgqZ1h3n-4" value="&lt;font style=&quot;font-size: 13px;&quot;&gt;&lt;b&gt;PID&lt;/b&gt;&lt;/font&gt;" style="rounded=0;whiteSpace=wrap;html=1;shadow=1;labelBackgroundColor=none;strokeWidth=1;fontFamily=Verdana;fontSize=8;align=center;" vertex="1" parent="1">
          <mxGeometry x="290" y="220" width="120" height="60" as="geometry" />
        </mxCell>
        <mxCell id="AfMUEeuCTZLKJgqZ1h3n-21" style="edgeStyle=orthogonalEdgeStyle;rounded=0;orthogonalLoop=1;jettySize=auto;html=1;exitX=0.5;exitY=1;exitDx=0;exitDy=0;entryX=0;entryY=0.5;entryDx=0;entryDy=0;" edge="1" parent="1" source="AfMUEeuCTZLKJgqZ1h3n-5" target="AfMUEeuCTZLKJgqZ1h3n-19">
          <mxGeometry relative="1" as="geometry" />
        </mxCell>
        <mxCell id="AfMUEeuCTZLKJgqZ1h3n-5" value="&lt;font style=&quot;font-size: 10px;&quot;&gt;&lt;b&gt;eBPF&lt;/b&gt;&lt;/font&gt;" style="rhombus;whiteSpace=wrap;html=1;rounded=0;shadow=1;labelBackgroundColor=none;strokeWidth=1;fontFamily=Verdana;fontSize=8;align=center;" vertex="1" parent="1">
          <mxGeometry x="310" y="420" width="100" height="60" as="geometry" />
        </mxCell>
        <mxCell id="AfMUEeuCTZLKJgqZ1h3n-6" value="&lt;font style=&quot;font-size: 12px;&quot;&gt;&lt;b&gt;Interfaz Virtual&lt;/b&gt;&lt;/font&gt;" style="whiteSpace=wrap;html=1;rounded=0;shadow=1;labelBackgroundColor=none;strokeWidth=1;fontFamily=Verdana;fontSize=8;align=center;" vertex="1" parent="1">
          <mxGeometry x="305" y="600" width="120" height="40" as="geometry" />
        </mxCell>
        <mxCell id="AfMUEeuCTZLKJgqZ1h3n-7" value="&lt;font style=&quot;font-size: 11px;&quot;&gt;&lt;b&gt;COM-FILTER&lt;/b&gt;&lt;/font&gt;" style="strokeWidth=1;html=1;shape=mxgraph.flowchart.terminator;whiteSpace=wrap;rounded=0;shadow=1;labelBackgroundColor=none;fontFamily=Verdana;fontSize=8;align=center;fillColor=#dae8fc;strokeColor=#6c8ebf;" vertex="1" parent="1">
          <mxGeometry x="397.5" y="710" width="85" height="40" as="geometry" />
        </mxCell>
        <mxCell id="AfMUEeuCTZLKJgqZ1h3n-11" style="edgeStyle=orthogonalEdgeStyle;rounded=0;orthogonalLoop=1;jettySize=auto;html=1;exitX=0;exitY=1;exitDx=0;exitDy=0;entryX=0.5;entryY=0;entryDx=0;entryDy=0;" edge="1" parent="1" source="AfMUEeuCTZLKJgqZ1h3n-8" target="AfMUEeuCTZLKJgqZ1h3n-4">
          <mxGeometry relative="1" as="geometry" />
        </mxCell>
        <mxCell id="AfMUEeuCTZLKJgqZ1h3n-8" value="&lt;font style=&quot;font-size: 10px;&quot;&gt;&lt;b&gt;ParÃ¡metro de&amp;nbsp;&lt;/b&gt;&lt;/font&gt;&lt;div style=&quot;font-size: 10px;&quot;&gt;&lt;font style=&quot;font-size: 10px;&quot;&gt;&lt;b&gt;filtrado&lt;/b&gt;&lt;/font&gt;&lt;/div&gt;" style="rhombus;whiteSpace=wrap;html=1;rounded=0;shadow=1;labelBackgroundColor=none;strokeWidth=1;fontFamily=Verdana;fontSize=8;align=center;fillColor=#f8cecc;strokeColor=#b85450;" vertex="1" parent="1">
          <mxGeometry x="390" y="120" width="100" height="60" as="geometry" />
        </mxCell>
        <mxCell id="AfMUEeuCTZLKJgqZ1h3n-9" style="edgeStyle=orthogonalEdgeStyle;rounded=0;orthogonalLoop=1;jettySize=auto;html=1;exitX=1;exitY=1;exitDx=0;exitDy=0;entryX=0.5;entryY=0;entryDx=0;entryDy=0;" edge="1" parent="1" source="AfMUEeuCTZLKJgqZ1h3n-8" target="60e70716793133e9-4">
          <mxGeometry relative="1" as="geometry" />
        </mxCell>
        <mxCell id="AfMUEeuCTZLKJgqZ1h3n-17" style="edgeStyle=orthogonalEdgeStyle;rounded=0;orthogonalLoop=1;jettySize=auto;html=1;exitX=0;exitY=1;exitDx=0;exitDy=0;entryX=0.5;entryY=0;entryDx=0;entryDy=0;" edge="1" parent="1" source="AfMUEeuCTZLKJgqZ1h3n-12" target="AfMUEeuCTZLKJgqZ1h3n-5">
          <mxGeometry relative="1" as="geometry" />
        </mxCell>
        <mxCell id="AfMUEeuCTZLKJgqZ1h3n-18" style="edgeStyle=orthogonalEdgeStyle;rounded=0;orthogonalLoop=1;jettySize=auto;html=1;exitX=1;exitY=1;exitDx=0;exitDy=0;entryX=0.5;entryY=0;entryDx=0;entryDy=0;" edge="1" parent="1" source="AfMUEeuCTZLKJgqZ1h3n-12" target="60e70716793133e9-5">
          <mxGeometry relative="1" as="geometry" />
        </mxCell>
        <mxCell id="AfMUEeuCTZLKJgqZ1h3n-12" value="&lt;font style=&quot;font-size: 9px;&quot;&gt;&lt;b&gt;Herramienta de&amp;nbsp;&lt;/b&gt;&lt;/font&gt;&lt;div style=&quot;font-size: 9px;&quot;&gt;&lt;font style=&quot;font-size: 9px;&quot;&gt;&lt;b&gt;filtrado&lt;/b&gt;&lt;/font&gt;&lt;/div&gt;" style="rhombus;whiteSpace=wrap;html=1;rounded=0;shadow=1;labelBackgroundColor=none;strokeWidth=1;fontFamily=Verdana;fontSize=8;align=center;fillColor=#f8cecc;strokeColor=#b85450;" vertex="1" parent="1">
          <mxGeometry x="390" y="320" width="100" height="60" as="geometry" />
        </mxCell>
        <mxCell id="AfMUEeuCTZLKJgqZ1h3n-22" style="edgeStyle=orthogonalEdgeStyle;rounded=0;orthogonalLoop=1;jettySize=auto;html=1;exitX=1;exitY=1;exitDx=0;exitDy=0;entryX=0.5;entryY=0;entryDx=0;entryDy=0;" edge="1" parent="1" source="AfMUEeuCTZLKJgqZ1h3n-19" target="60e70716793133e9-9">
          <mxGeometry relative="1" as="geometry" />
        </mxCell>
        <mxCell id="AfMUEeuCTZLKJgqZ1h3n-23" style="edgeStyle=orthogonalEdgeStyle;rounded=0;orthogonalLoop=1;jettySize=auto;html=1;exitX=0;exitY=1;exitDx=0;exitDy=0;entryX=0.5;entryY=0;entryDx=0;entryDy=0;" edge="1" parent="1" source="AfMUEeuCTZLKJgqZ1h3n-19" target="AfMUEeuCTZLKJgqZ1h3n-6">
          <mxGeometry relative="1" as="geometry" />
        </mxCell>
        <mxCell id="AfMUEeuCTZLKJgqZ1h3n-19" value="&lt;b style=&quot;font-size: 10px;&quot;&gt;&lt;font style=&quot;font-size: 10px;&quot;&gt;Interfaz de&lt;/font&gt;&lt;/b&gt;&lt;div style=&quot;font-size: 10px;&quot;&gt;&lt;b style=&quot;&quot;&gt;&lt;font style=&quot;font-size: 10px;&quot;&gt;filtrado&lt;/font&gt;&lt;/b&gt;&lt;/div&gt;" style="rhombus;whiteSpace=wrap;html=1;rounded=0;shadow=1;labelBackgroundColor=none;strokeWidth=1;fontFamily=Verdana;fontSize=8;align=center;fillColor=#f8cecc;strokeColor=#b85450;" vertex="1" parent="1">
          <mxGeometry x="390" y="500" width="100" height="60" as="geometry" />
        </mxCell>
        <mxCell id="AfMUEeuCTZLKJgqZ1h3n-26" value="&lt;font style=&quot;font-size: 10px;&quot;&gt;EstÃ¡tico, fÃ¡cil&lt;/font&gt;&lt;div&gt;&lt;font style=&quot;font-size: 10px;&quot;&gt;de filtrar&lt;/font&gt;&lt;/div&gt;" style="text;html=1;align=center;verticalAlign=middle;resizable=0;points=[];autosize=1;strokeColor=none;fillColor=none;" vertex="1" parent="1">
          <mxGeometry x="470" y="160" width="80" height="40" as="geometry" />
        </mxCell>
        <mxCell id="AfMUEeuCTZLKJgqZ1h3n-27" value="&lt;font style=&quot;font-size: 10px;&quot;&gt;Cambiante, complejo&lt;br&gt;de filtrar&lt;/font&gt;" style="text;html=1;align=center;verticalAlign=middle;resizable=0;points=[];autosize=1;strokeColor=none;fillColor=none;" vertex="1" parent="1">
          <mxGeometry x="300" y="160" width="120" height="40" as="geometry" />
        </mxCell>
        <mxCell id="AfMUEeuCTZLKJgqZ1h3n-28" value="&lt;font style=&quot;font-size: 10px;&quot;&gt;Directa, sencilla&lt;/font&gt;" style="text;html=1;align=center;verticalAlign=middle;resizable=0;points=[];autosize=1;strokeColor=none;fillColor=none;" vertex="1" parent="1">
          <mxGeometry x="460" y="370" width="90" height="30" as="geometry" />
        </mxCell>
        <mxCell id="AfMUEeuCTZLKJgqZ1h3n-29" value="&lt;font style=&quot;font-size: 10px;&quot;&gt;EspecÃ­fica, difÃ­cil&lt;br&gt;implementaciÃ³n&lt;/font&gt;" style="text;html=1;align=center;verticalAlign=middle;resizable=0;points=[];autosize=1;strokeColor=none;fillColor=none;" vertex="1" parent="1">
          <mxGeometry x="320" y="360" width="100" height="40" as="geometry" />
        </mxCell>
        <mxCell id="AfMUEeuCTZLKJgqZ1h3n-30" value="&lt;font style=&quot;font-size: 10px;&quot;&gt;Alta compatibilidad,&lt;br&gt;directa&lt;/font&gt;" style="text;html=1;align=center;verticalAlign=middle;resizable=0;points=[];autosize=1;strokeColor=none;fillColor=none;" vertex="1" parent="1">
          <mxGeometry x="480" y="550" width="110" height="40" as="geometry" />
        </mxCell>
        <mxCell id="AfMUEeuCTZLKJgqZ1h3n-31" value="&lt;font style=&quot;font-size: 10px;&quot;&gt;Errores frecuentes, &lt;br&gt;configuraciÃ³n difÃ­cil&lt;/font&gt;" style="text;html=1;align=center;verticalAlign=middle;resizable=0;points=[];autosize=1;strokeColor=none;fillColor=none;" vertex="1" parent="1">
          <mxGeometry x="300" y="540" width="110" height="40" as="geometry" />
        </mxCell>
      </root>
    </mxGraphModel>
  </diagram>
</mxfile>
